<svg
      xmlns="http://www.w3.org/2000/svg"
      xmlns:xlink="http://www.w3.org/1999/xlink"
      version="1.1"
      width="149"
      height="22"
      viewBox="0 0 3260.8695652173915 1178.5655958538225"
    >
      <g transform="scale(13.043478260869565) translate(10, 22)">
        <defs id="SvgjsDefs1449" />
        <g
          id="SvgjsG1450"
          featureKey="T16ghp-0"
          transform="translate(0, -6) matrix(0.07398273736128237,0,0,0.07398273736128237,-1.3316892725030827,3.6683107274969173)"
          fill="#fff"
        >
          <defs xmlns="http://www.w3.org/2000/svg" />
          <g xmlns="http://www.w3.org/2000/svg">
            <path
              d="M423 18c224,0 406,181 406,405 0,224 -182,406 -406,406 -224,0 -405,-182 -405,-406 0,-224 181,-405 405,-405zm338 279c-6,9 -13,18 -19,26 6,8 13,17 19,26 4,-9 8,-17 12,-26 -4,-9 -8,-17 -12,-26zm-36 45c-9,11 -20,21 -30,31 10,10 21,20 30,31 8,-10 15,-20 22,-31 -7,-10 -14,-21 -22,-31zm-50 47c-15,13 -32,24 -50,34 18,10 35,22 50,34 12,-10 24,-22 34,-34 -10,-12 -22,-23 -34,-34zm-76 48c-53,26 -113,40 -176,40 -63,0 -122,-14 -175,-40 -20,11 -39,23 -57,37 64,49 145,79 232,79 88,0 168,-30 233,-79 -18,-14 -37,-26 -57,-37zm-378 -14c-17,-10 -34,-21 -50,-34 -12,11 -23,22 -34,34 11,12 22,24 34,34 16,-12 33,-24 50,-34zm-69 -50c-11,-10 -21,-20 -31,-31 -7,10 -14,21 -21,31 7,11 14,21 21,31 10,-11 20,-21 31,-31zm-47 -50c-7,-8 -13,-17 -19,-26 -4,9 -8,17 -12,26 4,9 8,17 12,26 6,-9 12,-18 19,-26zm-19 -76l0 1c73,-109 197,-180 337,-180 141,0 265,71 338,180l0 -1c-64,-121 -191,-204 -338,-204 -146,0 -274,83 -337,204zm14 26c7,10 14,20 21,30 75,-82 182,-135 302,-135 120,0 228,53 302,135 8,-10 15,-20 22,-30 -68,-108 -187,-180 -324,-180 -136,0 -256,72 -323,180zm37 50c11,12 22,23 34,34 69,-55 157,-88 252,-88 96,0 183,33 252,88 12,-11 24,-22 34,-34 -70,-79 -172,-130 -286,-130 -114,0 -216,51 -286,130zm54 50c18,14 37,26 57,36 53,-25 112,-40 175,-40 63,0 123,15 176,40 20,-10 39,-22 57,-36 -65,-50 -145,-79 -233,-79 -87,0 -168,29 -232,79zm87 50c45,19 94,29 145,29 52,0 101,-10 146,-29 -45,-18 -94,-29 -146,-29 -51,0 -100,11 -145,29zm507 -67c-3,6 -6,11 -9,17 3,6 6,12 9,18 2,-6 4,-12 5,-18 -1,-6 -3,-12 -5,-17zm-24 42c-6,8 -13,17 -19,25 6,9 13,17 19,26 4,-8 8,-17 12,-26 -4,-8 -8,-17 -12,-25zm-36 45c-9,11 -20,21 -30,31 10,9 21,20 30,30 8,-10 15,-20 22,-30 -7,-11 -14,-21 -22,-31zm-50 47c-69,55 -156,88 -252,88 -95,0 -183,-33 -252,-88 -12,11 -23,22 -34,34 70,79 172,129 286,129 114,0 216,-50 286,-129 -10,-12 -22,-23 -34,-34zm-523 -16c-11,-10 -21,-20 -31,-31 -7,10 -14,20 -21,31 7,10 14,20 21,30 10,-10 20,-21 31,-30zm-47 -51c-7,-8 -13,-17 -19,-25 -4,8 -8,17 -12,25 4,9 8,18 12,26 6,-9 12,-17 19,-26zm-34 -50c-3,-6 -7,-11 -10,-17 -1,5 -3,11 -5,17 2,6 4,12 5,18 3,-6 7,-12 10,-18zm714 83c-3,6 -6,12 -9,18 3,5 6,11 9,17 2,-6 4,-12 6,-17 -2,-6 -4,-12 -6,-18zm-24 42c-6,9 -13,18 -19,26 6,8 13,17 19,26 4,-9 8,-17 12,-26 -4,-9 -8,-18 -12,-26zm-36 45c-74,83 -182,135 -302,135 -120,0 -227,-52 -302,-135 -7,10 -14,21 -21,31 67,108 187,180 323,180 137,0 256,-72 324,-180 -7,-10 -14,-21 -22,-31zm-620 -19c-7,-8 -13,-17 -19,-26 -4,8 -8,17 -12,26 4,9 8,17 12,26 6,-9 12,-18 19,-26zm-34 -50c-3,-6 -7,-12 -10,-18 -1,6 -3,12 -5,18 2,6 4,11 5,17 3,-6 7,-12 10,-17zm690 125c-73,108 -197,180 -338,180 -140,0 -264,-72 -337,-180l0 0c63,122 191,205 337,205 147,0 274,-83 338,-205l0 0z"
              style="fill: #41228e"
            />
          </g>
        </g>
        <g
          id="SvgjsG1451"
          featureKey="Fok8m0-0"
          transform="matrix(4.509921538357433,0,0,4.509921538357433,78.64702805453892,-34.185202766171464)"
          fill="#41228e"
        >
          <path d="M8.26 7.58 c1.32 0.04 2.64 0.04 3.96 0 l0 0.64 c-1.14 0.06 -1.56 0.34 -1.9 0.98 l-2.9 5.62 l0 3.8 c0 0.5 0.38 0.66 1.46 0.72 l0 0.66 c-1.72 -0.06 -3.54 -0.06 -5.28 0 l0 -0.64 c1.08 -0.08 1.46 -0.24 1.46 -0.74 l0 -3.72 l-3.26 -5.92 c-0.22 -0.4 -0.44 -0.7 -1.5 -0.76 l0 -0.64 c1.76 0.04 3.52 0.04 5.26 0 l0 0.64 c-1.06 0.06 -1.3 0.36 -1.08 0.76 l2.6 4.86 l2.42 -4.66 c0.34 -0.66 -0.18 -0.9 -1.24 -0.96 l0 -0.64 z M21.88 7.9399999999999995 l0.28 2.26 l-0.7 0 l-0.22 -0.42 c-0.58 -1.04 -1.08 -1.46 -2.12 -1.46 l-2.08 0 c-0.16 0 -0.24 0.08 -0.24 0.24 l0 4.72 l2.38 0 c1 0 1.22 -0.46 1.4 -1.28 l0.6 0 c-0.1 1.14 -0.1 2.18 0 3.3 l-0.6 0 c-0.18 -0.8 -0.4 -1.28 -1.4 -1.28 l-2.38 0 l0 4.62 c0 0.5 0.34 0.64 1.4 0.72 l0 0.64 c-1.72 -0.06 -3.46 -0.06 -5.18 0 l0 -0.64 c1.08 -0.08 1.42 -0.22 1.42 -0.72 l0 -9.7 c0 -0.5 -0.34 -0.64 -1.42 -0.72 l0 -0.64 l8.52 0 c0.26 0 0.3 0.06 0.34 0.36 z M27.04 15.14 l0 3.5 c0 0.5 0.34 0.64 1.4 0.72 l0 0.64 c-1.72 -0.06 -3.46 -0.06 -5.18 0 l0 -0.64 c1.08 -0.08 1.42 -0.22 1.42 -0.72 l0 -9.44 c0 -0.54 -0.3 -0.9 -1.34 -0.98 l0 -0.64 c1.84 0.08 3.74 0 4.9 0 c4.22 0 5.32 1.56 5.32 3.42 c0 1.96 -1.62 3.42 -6.02 4.06 z M27.04 14.42 l0.5 -0.06 c2.82 -0.36 3.7 -1.62 3.7 -3.4 c0 -1.52 -0.8 -2.68 -2.66 -2.68 l-1.54 0 l0 6.14 z" />
        </g>
      </g>
    </svg>